<mxfile host="app.diagrams.net" modified="2023-12-08T05:22:02.221Z" agent="Mozilla/5.0 (Windows NT 10.0; Win64; x64) AppleWebKit/537.36 (KHTML, like Gecko) Chrome/119.0.0.0 Safari/537.36" etag="Xa4UD-_raOyVTXjMGbYq" version="22.1.7" type="device">
  <diagram id="C5RBs43oDa-KdzZeNtuy" name="Page-1">
    <mxGraphModel dx="1050" dy="566" grid="1" gridSize="10" guides="1" tooltips="1" connect="1" arrows="1" fold="1" page="1" pageScale="1" pageWidth="583" pageHeight="827" math="0" shadow="0">
      <root>
        <mxCell id="WIyWlLk6GJQsqaUBKTNV-0" />
        <mxCell id="WIyWlLk6GJQsqaUBKTNV-1" parent="WIyWlLk6GJQsqaUBKTNV-0" />
        <mxCell id="WIyWlLk6GJQsqaUBKTNV-2" value="" style="rounded=0;html=1;jettySize=auto;orthogonalLoop=1;fontSize=11;endArrow=block;endFill=0;endSize=8;strokeWidth=1;shadow=0;labelBackgroundColor=none;edgeStyle=orthogonalEdgeStyle;" parent="WIyWlLk6GJQsqaUBKTNV-1" edge="1">
          <mxGeometry relative="1" as="geometry">
            <mxPoint x="230" y="220" as="sourcePoint" />
            <mxPoint x="220" y="240" as="targetPoint" />
          </mxGeometry>
        </mxCell>
        <mxCell id="FY3tjG7WUp0h5FHReQIg-2" value="Start" style="ellipse;whiteSpace=wrap;html=1;fillColor=#dae8fc;strokeColor=#6c8ebf;" parent="WIyWlLk6GJQsqaUBKTNV-1" vertex="1">
          <mxGeometry x="175" y="30" width="90" height="30" as="geometry" />
        </mxCell>
        <mxCell id="FY3tjG7WUp0h5FHReQIg-3" value="&lt;b&gt;Let I, j,&amp;nbsp; main-exit&lt;br&gt;struct{&lt;br&gt;char name[120]&lt;br&gt;int age&lt;br&gt;char city[120]&lt;br&gt;char mail-id[60]&lt;br&gt;char room-no[8]&lt;br&gt;char father-name[11]&lt;br&gt;char father phone-no[11]&lt;br&gt;char hostel-name[6]&lt;br&gt;char hostel-id[10]&lt;br&gt;&lt;br&gt;&lt;br&gt;&lt;/b&gt;" style="shape=parallelogram;perimeter=parallelogramPerimeter;whiteSpace=wrap;html=1;fixedSize=1;fillColor=#d5e8d4;strokeColor=#82b366;" parent="WIyWlLk6GJQsqaUBKTNV-1" vertex="1">
          <mxGeometry x="105" y="100" width="230" height="190" as="geometry" />
        </mxCell>
        <mxCell id="FY3tjG7WUp0h5FHReQIg-4" value="" style="endArrow=classic;html=1;rounded=0;entryX=0.5;entryY=0;entryDx=0;entryDy=0;" parent="WIyWlLk6GJQsqaUBKTNV-1" target="FY3tjG7WUp0h5FHReQIg-3" edge="1">
          <mxGeometry width="50" height="50" relative="1" as="geometry">
            <mxPoint x="220" y="60" as="sourcePoint" />
            <mxPoint x="300" y="230" as="targetPoint" />
            <Array as="points">
              <mxPoint x="220" y="60" />
            </Array>
          </mxGeometry>
        </mxCell>
        <mxCell id="FY3tjG7WUp0h5FHReQIg-5" value="" style="endArrow=classic;html=1;rounded=0;exitX=0.5;exitY=1;exitDx=0;exitDy=0;" parent="WIyWlLk6GJQsqaUBKTNV-1" source="FY3tjG7WUp0h5FHReQIg-3" target="FY3tjG7WUp0h5FHReQIg-6" edge="1">
          <mxGeometry width="50" height="50" relative="1" as="geometry">
            <mxPoint x="250" y="280" as="sourcePoint" />
            <mxPoint x="220" y="330" as="targetPoint" />
          </mxGeometry>
        </mxCell>
        <mxCell id="FY3tjG7WUp0h5FHReQIg-8" value="" style="edgeStyle=orthogonalEdgeStyle;rounded=0;orthogonalLoop=1;jettySize=auto;html=1;" parent="WIyWlLk6GJQsqaUBKTNV-1" source="FY3tjG7WUp0h5FHReQIg-6" edge="1">
          <mxGeometry relative="1" as="geometry">
            <mxPoint x="220" y="490" as="targetPoint" />
          </mxGeometry>
        </mxCell>
        <mxCell id="FY3tjG7WUp0h5FHReQIg-6" value="&lt;b&gt;1.Enter new Student&amp;nbsp;&lt;br&gt;2.Update student information&lt;br&gt;3.Check student details&lt;br&gt;4.View all students&lt;br&gt;5.Remove existing student&amp;nbsp;&lt;br&gt;&lt;br&gt;&lt;/b&gt;" style="shape=parallelogram;perimeter=parallelogramPerimeter;whiteSpace=wrap;html=1;fixedSize=1;fillColor=#fff2cc;strokeColor=#d6b656;" parent="WIyWlLk6GJQsqaUBKTNV-1" vertex="1">
          <mxGeometry x="100" y="330" width="240" height="110" as="geometry" />
        </mxCell>
        <mxCell id="FY3tjG7WUp0h5FHReQIg-11" value="" style="edgeStyle=orthogonalEdgeStyle;rounded=0;orthogonalLoop=1;jettySize=auto;html=1;" parent="WIyWlLk6GJQsqaUBKTNV-1" source="FY3tjG7WUp0h5FHReQIg-9" target="FY3tjG7WUp0h5FHReQIg-10" edge="1">
          <mxGeometry relative="1" as="geometry" />
        </mxCell>
        <mxCell id="FY3tjG7WUp0h5FHReQIg-14" value="" style="edgeStyle=orthogonalEdgeStyle;rounded=0;orthogonalLoop=1;jettySize=auto;html=1;" parent="WIyWlLk6GJQsqaUBKTNV-1" source="FY3tjG7WUp0h5FHReQIg-9" target="FY3tjG7WUp0h5FHReQIg-12" edge="1">
          <mxGeometry relative="1" as="geometry" />
        </mxCell>
        <mxCell id="FY3tjG7WUp0h5FHReQIg-9" value="&lt;b&gt;IF(choice==1)&lt;/b&gt;" style="rhombus;whiteSpace=wrap;html=1;fillColor=#e1d5e7;strokeColor=#9673a6;" parent="WIyWlLk6GJQsqaUBKTNV-1" vertex="1">
          <mxGeometry x="170" y="490" width="100" height="80" as="geometry" />
        </mxCell>
        <mxCell id="FY3tjG7WUp0h5FHReQIg-10" value="&lt;b&gt;fopen(&quot;record.txt&quot;,&quot;a&quot;)&lt;br&gt;Enter the details of new student into the file&amp;nbsp;&lt;br&gt;&lt;br&gt;&lt;/b&gt;" style="rounded=0;whiteSpace=wrap;html=1;fillColor=#d5e8d4;strokeColor=#82b366;gradientColor=#97d077;" parent="WIyWlLk6GJQsqaUBKTNV-1" vertex="1">
          <mxGeometry x="335" y="500" width="220" height="60" as="geometry" />
        </mxCell>
        <mxCell id="FY3tjG7WUp0h5FHReQIg-18" value="" style="edgeStyle=orthogonalEdgeStyle;rounded=0;orthogonalLoop=1;jettySize=auto;html=1;" parent="WIyWlLk6GJQsqaUBKTNV-1" source="FY3tjG7WUp0h5FHReQIg-12" target="FY3tjG7WUp0h5FHReQIg-15" edge="1">
          <mxGeometry relative="1" as="geometry" />
        </mxCell>
        <mxCell id="FY3tjG7WUp0h5FHReQIg-40" style="edgeStyle=orthogonalEdgeStyle;rounded=0;orthogonalLoop=1;jettySize=auto;html=1;entryX=0.5;entryY=0;entryDx=0;entryDy=0;" parent="WIyWlLk6GJQsqaUBKTNV-1" source="FY3tjG7WUp0h5FHReQIg-12" target="FY3tjG7WUp0h5FHReQIg-39" edge="1">
          <mxGeometry relative="1" as="geometry" />
        </mxCell>
        <mxCell id="FY3tjG7WUp0h5FHReQIg-12" value="&lt;b&gt;IF(choice==2)&lt;/b&gt;" style="rhombus;whiteSpace=wrap;html=1;fillColor=#e1d5e7;strokeColor=#9673a6;" parent="WIyWlLk6GJQsqaUBKTNV-1" vertex="1">
          <mxGeometry x="172.5" y="620" width="95" height="80" as="geometry" />
        </mxCell>
        <mxCell id="FY3tjG7WUp0h5FHReQIg-21" value="" style="edgeStyle=orthogonalEdgeStyle;rounded=0;orthogonalLoop=1;jettySize=auto;html=1;" parent="WIyWlLk6GJQsqaUBKTNV-1" source="FY3tjG7WUp0h5FHReQIg-15" target="FY3tjG7WUp0h5FHReQIg-16" edge="1">
          <mxGeometry relative="1" as="geometry" />
        </mxCell>
        <mxCell id="FY3tjG7WUp0h5FHReQIg-15" value="&lt;b&gt;let choice=0&lt;br&gt;Input hostel id&amp;nbsp;&lt;br&gt;&lt;/b&gt;" style="shape=parallelogram;perimeter=parallelogramPerimeter;whiteSpace=wrap;html=1;fixedSize=1;fillColor=#d5e8d4;strokeColor=#82b366;" parent="WIyWlLk6GJQsqaUBKTNV-1" vertex="1">
          <mxGeometry x="310" y="630" width="120" height="60" as="geometry" />
        </mxCell>
        <mxCell id="FY3tjG7WUp0h5FHReQIg-20" value="" style="edgeStyle=orthogonalEdgeStyle;rounded=0;orthogonalLoop=1;jettySize=auto;html=1;" parent="WIyWlLk6GJQsqaUBKTNV-1" source="FY3tjG7WUp0h5FHReQIg-16" target="FY3tjG7WUp0h5FHReQIg-19" edge="1">
          <mxGeometry relative="1" as="geometry" />
        </mxCell>
        <mxCell id="FY3tjG7WUp0h5FHReQIg-16" value="&lt;b&gt;Choice&lt;/b&gt;" style="shape=parallelogram;perimeter=parallelogramPerimeter;whiteSpace=wrap;html=1;fixedSize=1;fillColor=#d5e8d4;strokeColor=#82b366;" parent="WIyWlLk6GJQsqaUBKTNV-1" vertex="1">
          <mxGeometry x="450" y="630" width="120" height="60" as="geometry" />
        </mxCell>
        <mxCell id="FY3tjG7WUp0h5FHReQIg-23" value="" style="edgeStyle=orthogonalEdgeStyle;rounded=0;orthogonalLoop=1;jettySize=auto;html=1;" parent="WIyWlLk6GJQsqaUBKTNV-1" source="FY3tjG7WUp0h5FHReQIg-19" target="FY3tjG7WUp0h5FHReQIg-22" edge="1">
          <mxGeometry relative="1" as="geometry" />
        </mxCell>
        <mxCell id="FY3tjG7WUp0h5FHReQIg-26" value="" style="edgeStyle=orthogonalEdgeStyle;rounded=0;orthogonalLoop=1;jettySize=auto;html=1;" parent="WIyWlLk6GJQsqaUBKTNV-1" source="FY3tjG7WUp0h5FHReQIg-19" target="FY3tjG7WUp0h5FHReQIg-25" edge="1">
          <mxGeometry relative="1" as="geometry" />
        </mxCell>
        <mxCell id="FY3tjG7WUp0h5FHReQIg-19" value="&lt;b&gt;IF(choice==1)&lt;/b&gt;" style="rhombus;whiteSpace=wrap;html=1;fillColor=#e1d5e7;strokeColor=#9673a6;" parent="WIyWlLk6GJQsqaUBKTNV-1" vertex="1">
          <mxGeometry x="440" y="740" width="100" height="80" as="geometry" />
        </mxCell>
        <mxCell id="FY3tjG7WUp0h5FHReQIg-72" value="" style="edgeStyle=orthogonalEdgeStyle;rounded=0;orthogonalLoop=1;jettySize=auto;html=1;" parent="WIyWlLk6GJQsqaUBKTNV-1" source="FY3tjG7WUp0h5FHReQIg-22" target="FY3tjG7WUp0h5FHReQIg-45" edge="1">
          <mxGeometry relative="1" as="geometry" />
        </mxCell>
        <mxCell id="FY3tjG7WUp0h5FHReQIg-22" value="&lt;b&gt;Update Room no&lt;/b&gt;" style="rounded=0;whiteSpace=wrap;html=1;fillColor=#d5e8d4;gradientColor=#97d077;strokeColor=#82b366;" parent="WIyWlLk6GJQsqaUBKTNV-1" vertex="1">
          <mxGeometry x="610" y="750" width="120" height="60" as="geometry" />
        </mxCell>
        <mxCell id="FY3tjG7WUp0h5FHReQIg-24" value="Yes" style="text;html=1;align=center;verticalAlign=middle;resizable=0;points=[];autosize=1;strokeColor=none;fillColor=none;" parent="WIyWlLk6GJQsqaUBKTNV-1" vertex="1">
          <mxGeometry x="570" y="758" width="40" height="30" as="geometry" />
        </mxCell>
        <mxCell id="FY3tjG7WUp0h5FHReQIg-29" value="" style="edgeStyle=orthogonalEdgeStyle;rounded=0;orthogonalLoop=1;jettySize=auto;html=1;" parent="WIyWlLk6GJQsqaUBKTNV-1" source="FY3tjG7WUp0h5FHReQIg-25" target="FY3tjG7WUp0h5FHReQIg-28" edge="1">
          <mxGeometry relative="1" as="geometry" />
        </mxCell>
        <mxCell id="FY3tjG7WUp0h5FHReQIg-43" value="" style="edgeStyle=orthogonalEdgeStyle;rounded=0;orthogonalLoop=1;jettySize=auto;html=1;" parent="WIyWlLk6GJQsqaUBKTNV-1" source="FY3tjG7WUp0h5FHReQIg-25" target="FY3tjG7WUp0h5FHReQIg-41" edge="1">
          <mxGeometry relative="1" as="geometry" />
        </mxCell>
        <mxCell id="FY3tjG7WUp0h5FHReQIg-25" value="IF(choice==2)" style="rhombus;whiteSpace=wrap;html=1;fontStyle=1;fillColor=#e1d5e7;strokeColor=#9673a6;" parent="WIyWlLk6GJQsqaUBKTNV-1" vertex="1">
          <mxGeometry x="440" y="860" width="100" height="80" as="geometry" />
        </mxCell>
        <mxCell id="FY3tjG7WUp0h5FHReQIg-73" value="" style="edgeStyle=orthogonalEdgeStyle;rounded=0;orthogonalLoop=1;jettySize=auto;html=1;" parent="WIyWlLk6GJQsqaUBKTNV-1" source="FY3tjG7WUp0h5FHReQIg-28" target="FY3tjG7WUp0h5FHReQIg-45" edge="1">
          <mxGeometry relative="1" as="geometry" />
        </mxCell>
        <mxCell id="FY3tjG7WUp0h5FHReQIg-28" value="&lt;b&gt;Update Phone no&lt;/b&gt;" style="rounded=0;whiteSpace=wrap;html=1;fillColor=#d5e8d4;gradientColor=#97d077;strokeColor=#82b366;" parent="WIyWlLk6GJQsqaUBKTNV-1" vertex="1">
          <mxGeometry x="600" y="870" width="120" height="60" as="geometry" />
        </mxCell>
        <mxCell id="FY3tjG7WUp0h5FHReQIg-30" value="Yes" style="text;html=1;align=center;verticalAlign=middle;resizable=0;points=[];autosize=1;strokeColor=none;fillColor=none;" parent="WIyWlLk6GJQsqaUBKTNV-1" vertex="1">
          <mxGeometry x="540" y="878" width="40" height="30" as="geometry" />
        </mxCell>
        <mxCell id="FY3tjG7WUp0h5FHReQIg-32" value="No" style="text;html=1;align=center;verticalAlign=middle;resizable=0;points=[];autosize=1;strokeColor=none;fillColor=none;" parent="WIyWlLk6GJQsqaUBKTNV-1" vertex="1">
          <mxGeometry x="480" y="828" width="40" height="30" as="geometry" />
        </mxCell>
        <mxCell id="FY3tjG7WUp0h5FHReQIg-33" value="No" style="text;html=1;align=center;verticalAlign=middle;resizable=0;points=[];autosize=1;strokeColor=none;fillColor=none;" parent="WIyWlLk6GJQsqaUBKTNV-1" vertex="1">
          <mxGeometry x="490" y="718" width="40" height="30" as="geometry" />
        </mxCell>
        <mxCell id="FY3tjG7WUp0h5FHReQIg-34" value="Yes" style="text;html=1;align=center;verticalAlign=middle;resizable=0;points=[];autosize=1;strokeColor=none;fillColor=none;" parent="WIyWlLk6GJQsqaUBKTNV-1" vertex="1">
          <mxGeometry x="260" y="628" width="40" height="30" as="geometry" />
        </mxCell>
        <mxCell id="FY3tjG7WUp0h5FHReQIg-35" value="No" style="text;html=1;align=center;verticalAlign=middle;resizable=0;points=[];autosize=1;strokeColor=none;fillColor=none;" parent="WIyWlLk6GJQsqaUBKTNV-1" vertex="1">
          <mxGeometry x="220" y="578" width="40" height="30" as="geometry" />
        </mxCell>
        <mxCell id="FY3tjG7WUp0h5FHReQIg-38" value="Yes" style="text;html=1;align=center;verticalAlign=middle;resizable=0;points=[];autosize=1;strokeColor=none;fillColor=none;" parent="WIyWlLk6GJQsqaUBKTNV-1" vertex="1">
          <mxGeometry x="290" y="508" width="40" height="30" as="geometry" />
        </mxCell>
        <mxCell id="FY3tjG7WUp0h5FHReQIg-47" value="" style="edgeStyle=orthogonalEdgeStyle;rounded=0;orthogonalLoop=1;jettySize=auto;html=1;" parent="WIyWlLk6GJQsqaUBKTNV-1" source="FY3tjG7WUp0h5FHReQIg-39" target="FY3tjG7WUp0h5FHReQIg-46" edge="1">
          <mxGeometry relative="1" as="geometry" />
        </mxCell>
        <mxCell id="FY3tjG7WUp0h5FHReQIg-65" value="" style="edgeStyle=orthogonalEdgeStyle;rounded=0;orthogonalLoop=1;jettySize=auto;html=1;" parent="WIyWlLk6GJQsqaUBKTNV-1" source="FY3tjG7WUp0h5FHReQIg-39" target="FY3tjG7WUp0h5FHReQIg-64" edge="1">
          <mxGeometry relative="1" as="geometry" />
        </mxCell>
        <mxCell id="FY3tjG7WUp0h5FHReQIg-39" value="&lt;b&gt;IF(choice==3)&lt;/b&gt;" style="rhombus;whiteSpace=wrap;html=1;fillColor=#e1d5e7;strokeColor=#9673a6;" parent="WIyWlLk6GJQsqaUBKTNV-1" vertex="1">
          <mxGeometry x="172.5" y="980" width="95" height="80" as="geometry" />
        </mxCell>
        <mxCell id="FY3tjG7WUp0h5FHReQIg-41" value="&lt;b&gt;fopen(&quot;record.txt&quot;,&quot;r&quot;)&lt;br&gt;Display all the details of the student&lt;br&gt;&lt;/b&gt;" style="shape=parallelogram;perimeter=parallelogramPerimeter;whiteSpace=wrap;html=1;fixedSize=1;fillColor=#DAE8FC;strokeColor=#6c8ebf;" parent="WIyWlLk6GJQsqaUBKTNV-1" vertex="1">
          <mxGeometry x="470" y="975" width="160" height="90" as="geometry" />
        </mxCell>
        <mxCell id="FY3tjG7WUp0h5FHReQIg-44" value="No" style="text;html=1;align=center;verticalAlign=middle;resizable=0;points=[];autosize=1;strokeColor=none;fillColor=none;" parent="WIyWlLk6GJQsqaUBKTNV-1" vertex="1">
          <mxGeometry x="400" y="928" width="40" height="30" as="geometry" />
        </mxCell>
        <mxCell id="FY3tjG7WUp0h5FHReQIg-77" value="" style="edgeStyle=orthogonalEdgeStyle;rounded=0;orthogonalLoop=1;jettySize=auto;html=1;" parent="WIyWlLk6GJQsqaUBKTNV-1" source="FY3tjG7WUp0h5FHReQIg-45" target="FY3tjG7WUp0h5FHReQIg-76" edge="1">
          <mxGeometry relative="1" as="geometry" />
        </mxCell>
        <mxCell id="FY3tjG7WUp0h5FHReQIg-45" value="&lt;b&gt;MAIN Exit&amp;nbsp;&lt;/b&gt;" style="shape=parallelogram;perimeter=parallelogramPerimeter;whiteSpace=wrap;html=1;fixedSize=1;fillColor=#d5e8d4;gradientColor=#97d077;strokeColor=#82b366;" parent="WIyWlLk6GJQsqaUBKTNV-1" vertex="1">
          <mxGeometry x="790" y="1160" width="120" height="60" as="geometry" />
        </mxCell>
        <mxCell id="FY3tjG7WUp0h5FHReQIg-58" value="" style="edgeStyle=orthogonalEdgeStyle;rounded=0;orthogonalLoop=1;jettySize=auto;html=1;" parent="WIyWlLk6GJQsqaUBKTNV-1" source="FY3tjG7WUp0h5FHReQIg-46" target="FY3tjG7WUp0h5FHReQIg-57" edge="1">
          <mxGeometry relative="1" as="geometry" />
        </mxCell>
        <mxCell id="FY3tjG7WUp0h5FHReQIg-46" value="&lt;b&gt;IF(choice==4)&lt;/b&gt;" style="rhombus;whiteSpace=wrap;html=1;fillColor=#e1d5e7;strokeColor=#9673a6;" parent="WIyWlLk6GJQsqaUBKTNV-1" vertex="1">
          <mxGeometry x="175" y="1150" width="90" height="80" as="geometry" />
        </mxCell>
        <mxCell id="FY3tjG7WUp0h5FHReQIg-61" value="" style="edgeStyle=orthogonalEdgeStyle;rounded=0;orthogonalLoop=1;jettySize=auto;html=1;" parent="WIyWlLk6GJQsqaUBKTNV-1" source="FY3tjG7WUp0h5FHReQIg-48" target="FY3tjG7WUp0h5FHReQIg-49" edge="1">
          <mxGeometry relative="1" as="geometry" />
        </mxCell>
        <mxCell id="FY3tjG7WUp0h5FHReQIg-48" value="&lt;b&gt;Replace (record.txt) with (new.txt)&lt;br&gt;&lt;br&gt;&lt;/b&gt;" style="rounded=0;whiteSpace=wrap;html=1;fillColor=#d5e8d4;gradientColor=#97d077;strokeColor=#82b366;" parent="WIyWlLk6GJQsqaUBKTNV-1" vertex="1">
          <mxGeometry x="310" y="1300" width="120" height="60" as="geometry" />
        </mxCell>
        <mxCell id="FY3tjG7WUp0h5FHReQIg-49" value="&lt;b&gt;DIsplay new.txt&lt;br&gt;fopen(&quot;new.txt&quot;,&quot;r&quot;)&lt;br&gt;&lt;/b&gt;" style="shape=parallelogram;perimeter=parallelogramPerimeter;whiteSpace=wrap;html=1;fixedSize=1;fillColor=#dae8fc;strokeColor=#6c8ebf;" parent="WIyWlLk6GJQsqaUBKTNV-1" vertex="1">
          <mxGeometry x="490" y="1300" width="147" height="60" as="geometry" />
        </mxCell>
        <mxCell id="FY3tjG7WUp0h5FHReQIg-53" value="No" style="text;html=1;align=center;verticalAlign=middle;resizable=0;points=[];autosize=1;strokeColor=none;fillColor=none;" parent="WIyWlLk6GJQsqaUBKTNV-1" vertex="1">
          <mxGeometry x="220" y="1078" width="40" height="30" as="geometry" />
        </mxCell>
        <mxCell id="FY3tjG7WUp0h5FHReQIg-56" value="No" style="text;html=1;align=center;verticalAlign=middle;resizable=0;points=[];autosize=1;strokeColor=none;fillColor=none;" parent="WIyWlLk6GJQsqaUBKTNV-1" vertex="1">
          <mxGeometry x="210" y="798" width="40" height="30" as="geometry" />
        </mxCell>
        <mxCell id="FY3tjG7WUp0h5FHReQIg-62" value="" style="edgeStyle=orthogonalEdgeStyle;rounded=0;orthogonalLoop=1;jettySize=auto;html=1;" parent="WIyWlLk6GJQsqaUBKTNV-1" source="FY3tjG7WUp0h5FHReQIg-57" target="FY3tjG7WUp0h5FHReQIg-48" edge="1">
          <mxGeometry relative="1" as="geometry" />
        </mxCell>
        <mxCell id="FY3tjG7WUp0h5FHReQIg-57" value="&lt;b&gt;IF(choice==5)&lt;/b&gt;" style="rhombus;whiteSpace=wrap;html=1;fillColor=#e1d5e7;strokeColor=#9673a6;" parent="WIyWlLk6GJQsqaUBKTNV-1" vertex="1">
          <mxGeometry x="172.5" y="1290" width="95" height="80" as="geometry" />
        </mxCell>
        <mxCell id="FY3tjG7WUp0h5FHReQIg-66" value="" style="edgeStyle=orthogonalEdgeStyle;rounded=0;orthogonalLoop=1;jettySize=auto;html=1;" parent="WIyWlLk6GJQsqaUBKTNV-1" source="FY3tjG7WUp0h5FHReQIg-64" target="FY3tjG7WUp0h5FHReQIg-41" edge="1">
          <mxGeometry relative="1" as="geometry" />
        </mxCell>
        <mxCell id="FY3tjG7WUp0h5FHReQIg-64" value="&lt;b&gt;Input hostel ID&lt;/b&gt;" style="shape=parallelogram;perimeter=parallelogramPerimeter;whiteSpace=wrap;html=1;fixedSize=1;fillColor=#dae8fc;strokeColor=#6c8ebf;" parent="WIyWlLk6GJQsqaUBKTNV-1" vertex="1">
          <mxGeometry x="300" y="990" width="120" height="60" as="geometry" />
        </mxCell>
        <mxCell id="FY3tjG7WUp0h5FHReQIg-68" value="" style="endArrow=classic;html=1;rounded=0;entryX=0.5;entryY=1;entryDx=0;entryDy=0;" parent="WIyWlLk6GJQsqaUBKTNV-1" target="FY3tjG7WUp0h5FHReQIg-41" edge="1">
          <mxGeometry width="50" height="50" relative="1" as="geometry">
            <mxPoint x="550" y="1190" as="sourcePoint" />
            <mxPoint x="610" y="1090" as="targetPoint" />
          </mxGeometry>
        </mxCell>
        <mxCell id="FY3tjG7WUp0h5FHReQIg-74" value="" style="endArrow=classic;html=1;rounded=0;exitX=1;exitY=0.5;exitDx=0;exitDy=0;" parent="WIyWlLk6GJQsqaUBKTNV-1" source="FY3tjG7WUp0h5FHReQIg-49" edge="1">
          <mxGeometry width="50" height="50" relative="1" as="geometry">
            <mxPoint x="560" y="1410" as="sourcePoint" />
            <mxPoint x="840" y="1330" as="targetPoint" />
          </mxGeometry>
        </mxCell>
        <mxCell id="FY3tjG7WUp0h5FHReQIg-75" value="" style="endArrow=classic;html=1;rounded=0;entryX=0.413;entryY=1.073;entryDx=0;entryDy=0;entryPerimeter=0;" parent="WIyWlLk6GJQsqaUBKTNV-1" target="FY3tjG7WUp0h5FHReQIg-45" edge="1">
          <mxGeometry width="50" height="50" relative="1" as="geometry">
            <mxPoint x="840" y="1330" as="sourcePoint" />
            <mxPoint x="610" y="1360" as="targetPoint" />
          </mxGeometry>
        </mxCell>
        <mxCell id="FY3tjG7WUp0h5FHReQIg-81" value="" style="edgeStyle=orthogonalEdgeStyle;rounded=0;orthogonalLoop=1;jettySize=auto;html=1;" parent="WIyWlLk6GJQsqaUBKTNV-1" source="FY3tjG7WUp0h5FHReQIg-76" target="FY3tjG7WUp0h5FHReQIg-80" edge="1">
          <mxGeometry relative="1" as="geometry" />
        </mxCell>
        <mxCell id="FY3tjG7WUp0h5FHReQIg-94" value="" style="edgeStyle=orthogonalEdgeStyle;rounded=0;orthogonalLoop=1;jettySize=auto;html=1;" parent="WIyWlLk6GJQsqaUBKTNV-1" source="FY3tjG7WUp0h5FHReQIg-76" target="FY3tjG7WUp0h5FHReQIg-93" edge="1">
          <mxGeometry relative="1" as="geometry" />
        </mxCell>
        <mxCell id="FY3tjG7WUp0h5FHReQIg-76" value="I&lt;b&gt;IF(main-exit==1)&lt;/b&gt;" style="rhombus;whiteSpace=wrap;html=1;fillColor=#e1d5e7;strokeColor=#9673a6;" parent="WIyWlLk6GJQsqaUBKTNV-1" vertex="1">
          <mxGeometry x="950" y="1150" width="110" height="80" as="geometry" />
        </mxCell>
        <mxCell id="FY3tjG7WUp0h5FHReQIg-78" value="" style="endArrow=classic;html=1;rounded=0;exitX=0.5;exitY=0;exitDx=0;exitDy=0;" parent="WIyWlLk6GJQsqaUBKTNV-1" source="FY3tjG7WUp0h5FHReQIg-76" edge="1">
          <mxGeometry width="50" height="50" relative="1" as="geometry">
            <mxPoint x="560" y="1200" as="sourcePoint" />
            <mxPoint x="1000" y="200" as="targetPoint" />
          </mxGeometry>
        </mxCell>
        <mxCell id="FY3tjG7WUp0h5FHReQIg-79" value="" style="endArrow=classic;html=1;rounded=0;entryX=0.982;entryY=0.545;entryDx=0;entryDy=0;entryPerimeter=0;" parent="WIyWlLk6GJQsqaUBKTNV-1" target="FY3tjG7WUp0h5FHReQIg-3" edge="1">
          <mxGeometry width="50" height="50" relative="1" as="geometry">
            <mxPoint x="1000" y="200" as="sourcePoint" />
            <mxPoint x="450" y="330" as="targetPoint" />
          </mxGeometry>
        </mxCell>
        <mxCell id="FY3tjG7WUp0h5FHReQIg-90" value="" style="edgeStyle=orthogonalEdgeStyle;rounded=0;orthogonalLoop=1;jettySize=auto;html=1;" parent="WIyWlLk6GJQsqaUBKTNV-1" source="FY3tjG7WUp0h5FHReQIg-80" edge="1">
          <mxGeometry relative="1" as="geometry">
            <mxPoint x="980" y="1520" as="targetPoint" />
          </mxGeometry>
        </mxCell>
        <mxCell id="FY3tjG7WUp0h5FHReQIg-95" value="" style="edgeStyle=orthogonalEdgeStyle;rounded=0;orthogonalLoop=1;jettySize=auto;html=1;" parent="WIyWlLk6GJQsqaUBKTNV-1" source="FY3tjG7WUp0h5FHReQIg-80" target="FY3tjG7WUp0h5FHReQIg-93" edge="1">
          <mxGeometry relative="1" as="geometry" />
        </mxCell>
        <mxCell id="FY3tjG7WUp0h5FHReQIg-80" value="&lt;b&gt;IF(main-exit==2)&lt;/b&gt;" style="rhombus;whiteSpace=wrap;html=1;fillColor=#e1d5e7;strokeColor=#9673a6;" parent="WIyWlLk6GJQsqaUBKTNV-1" vertex="1">
          <mxGeometry x="920" y="1260" width="120" height="80" as="geometry" />
        </mxCell>
        <mxCell id="FY3tjG7WUp0h5FHReQIg-82" value="" style="endArrow=classic;html=1;rounded=0;exitX=1;exitY=0.5;exitDx=0;exitDy=0;" parent="WIyWlLk6GJQsqaUBKTNV-1" source="FY3tjG7WUp0h5FHReQIg-10" edge="1">
          <mxGeometry width="50" height="50" relative="1" as="geometry">
            <mxPoint x="510" y="690" as="sourcePoint" />
            <mxPoint x="850" y="530" as="targetPoint" />
          </mxGeometry>
        </mxCell>
        <mxCell id="FY3tjG7WUp0h5FHReQIg-83" value="" style="endArrow=classic;html=1;rounded=0;" parent="WIyWlLk6GJQsqaUBKTNV-1" edge="1">
          <mxGeometry width="50" height="50" relative="1" as="geometry">
            <mxPoint x="850" y="530" as="sourcePoint" />
            <mxPoint x="850" y="780" as="targetPoint" />
          </mxGeometry>
        </mxCell>
        <mxCell id="FY3tjG7WUp0h5FHReQIg-84" value="" style="endArrow=classic;html=1;rounded=0;exitX=1;exitY=0.5;exitDx=0;exitDy=0;" parent="WIyWlLk6GJQsqaUBKTNV-1" source="FY3tjG7WUp0h5FHReQIg-46" edge="1">
          <mxGeometry width="50" height="50" relative="1" as="geometry">
            <mxPoint x="670" y="1130" as="sourcePoint" />
            <mxPoint x="550" y="1190" as="targetPoint" />
          </mxGeometry>
        </mxCell>
        <mxCell id="FY3tjG7WUp0h5FHReQIg-85" value="" style="endArrow=classic;html=1;rounded=0;exitX=1;exitY=0.5;exitDx=0;exitDy=0;" parent="WIyWlLk6GJQsqaUBKTNV-1" source="FY3tjG7WUp0h5FHReQIg-41" edge="1">
          <mxGeometry width="50" height="50" relative="1" as="geometry">
            <mxPoint x="650" y="1020" as="sourcePoint" />
            <mxPoint x="850" y="1020" as="targetPoint" />
          </mxGeometry>
        </mxCell>
        <mxCell id="FY3tjG7WUp0h5FHReQIg-87" value="&amp;nbsp; &amp;nbsp;Yes&lt;br&gt;" style="text;html=1;align=center;verticalAlign=middle;resizable=0;points=[];autosize=1;strokeColor=none;fillColor=none;" parent="WIyWlLk6GJQsqaUBKTNV-1" vertex="1">
          <mxGeometry x="985" y="1098" width="50" height="30" as="geometry" />
        </mxCell>
        <mxCell id="FY3tjG7WUp0h5FHReQIg-92" value="&amp;nbsp; &amp;nbsp; No&lt;br&gt;" style="text;html=1;align=center;verticalAlign=middle;resizable=0;points=[];autosize=1;strokeColor=none;fillColor=none;" parent="WIyWlLk6GJQsqaUBKTNV-1" vertex="1">
          <mxGeometry x="965" y="1338" width="50" height="30" as="geometry" />
        </mxCell>
        <mxCell id="FY3tjG7WUp0h5FHReQIg-93" value="&lt;b&gt;Display the closing menu&amp;nbsp;&lt;/b&gt;" style="shape=parallelogram;perimeter=parallelogramPerimeter;whiteSpace=wrap;html=1;fixedSize=1;fillColor=#dae8fc;strokeColor=#6c8ebf;" parent="WIyWlLk6GJQsqaUBKTNV-1" vertex="1">
          <mxGeometry x="1080" y="1270" width="140" height="60" as="geometry" />
        </mxCell>
        <mxCell id="FY3tjG7WUp0h5FHReQIg-96" value="No" style="text;html=1;align=center;verticalAlign=middle;resizable=0;points=[];autosize=1;strokeColor=none;fillColor=none;" parent="WIyWlLk6GJQsqaUBKTNV-1" vertex="1">
          <mxGeometry x="1060" y="1158" width="40" height="30" as="geometry" />
        </mxCell>
        <mxCell id="FY3tjG7WUp0h5FHReQIg-97" value="Yes" style="text;html=1;align=center;verticalAlign=middle;resizable=0;points=[];autosize=1;strokeColor=none;fillColor=none;" parent="WIyWlLk6GJQsqaUBKTNV-1" vertex="1">
          <mxGeometry x="1040" y="1258" width="40" height="30" as="geometry" />
        </mxCell>
        <mxCell id="FY3tjG7WUp0h5FHReQIg-98" value="&lt;b&gt;Stop&lt;/b&gt;" style="ellipse;whiteSpace=wrap;html=1;fillColor=#dae8fc;strokeColor=#6c8ebf;" parent="WIyWlLk6GJQsqaUBKTNV-1" vertex="1">
          <mxGeometry x="520" y="1490" width="110" height="50" as="geometry" />
        </mxCell>
        <mxCell id="FY3tjG7WUp0h5FHReQIg-101" value="" style="endArrow=classic;html=1;rounded=0;entryX=1.007;entryY=0.656;entryDx=0;entryDy=0;entryPerimeter=0;" parent="WIyWlLk6GJQsqaUBKTNV-1" target="FY3tjG7WUp0h5FHReQIg-98" edge="1">
          <mxGeometry width="50" height="50" relative="1" as="geometry">
            <mxPoint x="980" y="1520" as="sourcePoint" />
            <mxPoint x="640" y="1520" as="targetPoint" />
          </mxGeometry>
        </mxCell>
        <mxCell id="FY3tjG7WUp0h5FHReQIg-105" value="" style="endArrow=classic;html=1;rounded=0;exitX=0.5;exitY=1;exitDx=0;exitDy=0;" parent="WIyWlLk6GJQsqaUBKTNV-1" source="FY3tjG7WUp0h5FHReQIg-57" edge="1">
          <mxGeometry width="50" height="50" relative="1" as="geometry">
            <mxPoint x="650" y="1430" as="sourcePoint" />
            <mxPoint x="220" y="1520" as="targetPoint" />
          </mxGeometry>
        </mxCell>
        <mxCell id="FY3tjG7WUp0h5FHReQIg-106" value="" style="endArrow=classic;html=1;rounded=0;entryX=-0.025;entryY=0.64;entryDx=0;entryDy=0;entryPerimeter=0;" parent="WIyWlLk6GJQsqaUBKTNV-1" target="FY3tjG7WUp0h5FHReQIg-98" edge="1">
          <mxGeometry width="50" height="50" relative="1" as="geometry">
            <mxPoint x="220" y="1520" as="sourcePoint" />
            <mxPoint x="510" y="1530" as="targetPoint" />
          </mxGeometry>
        </mxCell>
        <mxCell id="FY3tjG7WUp0h5FHReQIg-107" value="" style="endArrow=classic;html=1;rounded=0;exitX=0.5;exitY=1;exitDx=0;exitDy=0;" parent="WIyWlLk6GJQsqaUBKTNV-1" source="FY3tjG7WUp0h5FHReQIg-93" edge="1">
          <mxGeometry width="50" height="50" relative="1" as="geometry">
            <mxPoint x="740" y="1430" as="sourcePoint" />
            <mxPoint x="1150" y="1520" as="targetPoint" />
          </mxGeometry>
        </mxCell>
        <mxCell id="FY3tjG7WUp0h5FHReQIg-108" value="" style="endArrow=classic;html=1;rounded=0;" parent="WIyWlLk6GJQsqaUBKTNV-1" edge="1">
          <mxGeometry width="50" height="50" relative="1" as="geometry">
            <mxPoint x="1150" y="1520" as="sourcePoint" />
            <mxPoint x="980" y="1520" as="targetPoint" />
          </mxGeometry>
        </mxCell>
        <mxCell id="7sG2lWXp-dGsD4VY53r7-0" value="Yes" style="text;html=1;align=center;verticalAlign=middle;resizable=0;points=[];autosize=1;strokeColor=none;fillColor=none;" vertex="1" parent="WIyWlLk6GJQsqaUBKTNV-1">
          <mxGeometry x="260" y="998" width="40" height="30" as="geometry" />
        </mxCell>
        <mxCell id="7sG2lWXp-dGsD4VY53r7-1" value="Yes" style="text;html=1;align=center;verticalAlign=middle;resizable=0;points=[];autosize=1;strokeColor=none;fillColor=none;" vertex="1" parent="WIyWlLk6GJQsqaUBKTNV-1">
          <mxGeometry x="280" y="1158" width="40" height="30" as="geometry" />
        </mxCell>
        <mxCell id="7sG2lWXp-dGsD4VY53r7-2" value="No" style="text;html=1;align=center;verticalAlign=middle;resizable=0;points=[];autosize=1;strokeColor=none;fillColor=none;" vertex="1" parent="WIyWlLk6GJQsqaUBKTNV-1">
          <mxGeometry x="220" y="1248" width="40" height="30" as="geometry" />
        </mxCell>
        <mxCell id="7sG2lWXp-dGsD4VY53r7-3" value="Yes" style="text;html=1;align=center;verticalAlign=middle;resizable=0;points=[];autosize=1;strokeColor=none;fillColor=none;" vertex="1" parent="WIyWlLk6GJQsqaUBKTNV-1">
          <mxGeometry x="260" y="1298" width="40" height="30" as="geometry" />
        </mxCell>
        <mxCell id="7sG2lWXp-dGsD4VY53r7-4" value="&amp;nbsp; No&amp;nbsp;" style="text;html=1;align=center;verticalAlign=middle;resizable=0;points=[];autosize=1;strokeColor=none;fillColor=none;" vertex="1" parent="WIyWlLk6GJQsqaUBKTNV-1">
          <mxGeometry x="205" y="1398" width="50" height="30" as="geometry" />
        </mxCell>
      </root>
    </mxGraphModel>
  </diagram>
</mxfile>
